<?xml version="1.0" standalone="no"?>
<!DOCTYPE svg PUBLIC "-//W3C//DTD SVG 20010904//EN"
 "http://www.w3.org/TR/2001/REC-SVG-20010904/DTD/svg10.dtd">
<svg version="1.0" xmlns="http://www.w3.org/2000/svg"
 width="1057.000000pt" height="1057.000000pt" viewBox="0 0 1057.000000 1057.000000"
 preserveAspectRatio="xMidYMid meet">
<metadata>
Created by potrace 1.11, written by Peter Selinger 2001-2013
</metadata>
<g transform="translate(0.000000,1057.000000) scale(0.100000,-0.100000)"
fill="#000000" stroke="none">
<path d="M2580 10353 c-129 -7 -377 -35 -487 -53 -356 -60 -617 -158 -873
-327 -146 -97 -237 -172 -366 -304 -282 -290 -460 -618 -548 -1011 -56 -251
-80 -463 -97 -868 -15 -367 -7 -5124 9 -5300 34 -379 72 -599 142 -825 120
-390 423 -801 782 -1058 366 -262 690 -365 1353 -429 171 -16 5108 -24 5430
-8 569 28 931 102 1240 254 434 214 781 565 991 1001 125 258 200 589 234
1024 14 183 14 5448 0 5627 -56 708 -209 1117 -571 1531 -230 263 -599 507
-914 603 -233 72 -492 115 -830 140 -126 9 -5342 12 -5495 3z m3076 -1694
c594 -57 1048 -252 1394 -599 255 -256 421 -539 524 -895 39 -138 80 -366 72
-401 l-6 -24 -250 0 -250 0 -6 28 c-89 416 -229 702 -469 959 -233 250 -535
397 -945 458 -151 23 -503 31 -641 16 -538 -62 -947 -297 -1270 -733 -217
-293 -353 -636 -422 -1063 -22 -138 -22 -156 -22 -1055 0 -1000 0 -1006 61
-1280 129 -577 459 -1074 906 -1364 178 -116 416 -213 625 -255 181 -37 282
-44 572 -38 285 6 437 21 636 66 362 81 724 252 907 429 l68 65 0 854 0 853
-867 2 -868 3 -3 228 -2 227 1145 0 1145 0 0 -1161 0 -1161 -50 -63 c-95 -119
-247 -246 -428 -358 -487 -300 -953 -427 -1657 -453 -782 -28 -1420 201 -1924
690 -498 484 -762 1095 -811 1876 -13 214 -13 1436 0 1650 29 459 118 813 297
1178 193 394 527 766 886 989 298 184 611 286 1032 336 72 9 521 6 621 -4z"/>
</g>
</svg>
