<?xml version="1.0" standalone="no"?>
<!DOCTYPE svg PUBLIC "-//W3C//DTD SVG 20010904//EN"
 "http://www.w3.org/TR/2001/REC-SVG-20010904/DTD/svg10.dtd">
<svg version="1.0" xmlns="http://www.w3.org/2000/svg"
 width="1057.000000pt" height="1057.000000pt" viewBox="0 0 1057.000000 1057.000000"
 preserveAspectRatio="xMidYMid meet">
<metadata>
Created by potrace 1.11, written by Peter Selinger 2001-2013
</metadata>
<g transform="translate(0.000000,1057.000000) scale(0.100000,-0.100000)"
fill="#000000" stroke="none">
<path d="M2480 10349 c-265 -21 -528 -66 -729 -124 -666 -193 -1235 -771
-1416 -1441 -70 -258 -106 -523 -125 -899 -13 -264 -13 -4973 0 -5235 22 -450
77 -792 170 -1055 69 -195 223 -456 372 -632 226 -267 555 -502 863 -618 244
-92 605 -153 1040 -175 306 -16 5347 -8 5505 8 460 48 749 117 994 236 217
106 378 220 560 396 192 187 322 364 436 595 125 254 204 584 240 1010 14 169
14 5529 -1 5702 -30 365 -99 688 -195 913 -198 462 -573 853 -1036 1080 -237
116 -475 177 -880 227 -133 16 -346 17 -2918 19 -1526 1 -2822 -2 -2880 -7z
m3185 -2168 c470 -51 776 -131 1075 -281 424 -212 676 -522 771 -949 32 -145
45 -353 31 -507 -45 -492 -287 -862 -694 -1057 -48 -23 -87 -44 -88 -47 0 -3
37 -15 82 -28 403 -112 678 -364 822 -752 142 -386 104 -945 -90 -1328 -102
-199 -258 -381 -445 -515 -120 -86 -359 -205 -515 -256 -216 -70 -472 -119
-748 -141 -79 -6 -617 -10 -1397 -10 l-1269 0 0 2946 0 2945 1178 -4 c819 -3
1210 -8 1287 -16z"/>
<path d="M4572 6443 l3 -698 395 1 c422 0 521 7 689 50 145 36 251 94 342 184
123 121 168 244 169 453 0 361 -164 573 -511 661 -152 39 -261 46 -689 46
l-400 0 2 -697z"/>
<path d="M4577 4833 c-4 -3 -7 -336 -7 -740 l0 -733 498 0 c273 0 547 5 607
10 404 38 629 205 691 509 23 115 15 351 -15 466 -31 120 -85 219 -161 296
-115 117 -267 173 -515 189 -160 11 -1088 13 -1098 3z"/>
</g>
</svg>
